<?xml version="1.0" encoding="UTF-8"?>
<svg xmlns="http://www.w3.org/2000/svg" width="400" height="400" viewBox="0 0 400 400" role="img" aria-label="Gourmet food and drinks gift">
  <defs><linearGradient id="bg" x1="0" y1="0" x2="1" y2="1"><stop offset="0" stop-color="#FCF3E5"/><stop offset="1" stop-color="#F4E3C7"/></linearGradient></defs>
  <rect width="400" height="400" fill="url(#bg)"/>
  <circle cx="318" cy="84" r="56" fill="#8D6E63" opacity="0.22"/>
  <circle cx="70" cy="330" r="72" fill="#000068" opacity="0.12"/>
  <g opacity="0.5" fill="#8D6E63"><circle cx="60" cy="64" r="13"/><circle cx="90" cy="64" r="13"/><circle cx="75" cy="92" r="13"/><circle cx="60" cy="120" r="13"/><circle cx="90" cy="120" r="13"/></g>
  <rect x="110" y="176" width="180" height="134" rx="14" fill="#8D6E63" opacity="0.92"/>
  <rect x="96" y="146" width="208" height="50" rx="12" fill="#6D4C41"/>
  <rect x="186" y="146" width="28" height="164" fill="#000068"/>
  <path d="M200 146c-30-6-52-24-52-48 0-16 14-28 30-24 16 4 22 32 22 72z" fill="#000068"/>
  <path d="M200 146c30-6 52-24 52-48 0-16-14-28-30-24-16 4-22 32-22 72z" fill="#000068"/>
</svg>
