<?xml version="1.0" encoding="UTF-8"?>
<svg xmlns="http://www.w3.org/2000/svg" width="400" height="400" viewBox="0 0 400 400" role="img" aria-label="Toys and games gift">
  <defs><linearGradient id="bg" x1="0" y1="0" x2="1" y2="1"><stop offset="0" stop-color="#FFF4E3"/><stop offset="1" stop-color="#FFE2C4"/></linearGradient></defs>
  <rect width="400" height="400" fill="url(#bg)"/>
  <circle cx="318" cy="84" r="56" fill="#FF8A65" opacity="0.3"/>
  <circle cx="70" cy="330" r="72" fill="#26A69A" opacity="0.25"/>
  <path d="M74 40l11 24 26 3-19 18 5 26-23-12-23 12 5-26-19-18 26-3z" fill="#26A69A" opacity="0.55"/>
  <rect x="110" y="176" width="180" height="134" rx="14" fill="#FF8A65" opacity="0.92"/>
  <rect x="96" y="146" width="208" height="50" rx="12" fill="#F4633B"/>
  <rect x="186" y="146" width="28" height="164" fill="#26A69A"/>
  <path d="M200 146c-30-6-52-24-52-48 0-16 14-28 30-24 16 4 22 32 22 72z" fill="#26A69A"/>
  <path d="M200 146c30-6 52-24 52-48 0-16-14-28-30-24-16 4-22 32-22 72z" fill="#26A69A"/>
</svg>
